<svg width="24" height="24" viewBox="0 0 24 24" fill="none" xmlns="http://www.w3.org/2000/svg">
<g clip-path="url(#clip0_2543_70979)">
<circle cx="12" cy="12" r="12" fill="#C4170C"/>
<g clip-path="url(#clip1_2543_70979)">
<path d="M17.7372 9.78L14.1072 9.465L12.6897 6.1275C12.4347 5.52 11.5647 5.52 11.3097 6.1275L9.89225 9.4725L6.26975 9.78C5.60975 9.8325 5.33975 10.6575 5.84225 11.0925L8.59475 13.4775L7.76975 17.0175C7.61975 17.6625 8.31725 18.1725 8.88725 17.8275L11.9997 15.9525L15.1122 17.835C15.6822 18.18 16.3797 17.67 16.2297 17.025L15.4047 13.4775L18.1572 11.0925C18.6597 10.6575 18.3972 9.8325 17.7372 9.78V9.78ZM11.9997 14.55L9.17975 16.2525L9.92975 13.0425L7.43975 10.8825L10.7247 10.5975L11.9997 7.575L13.2822 10.605L16.5672 10.89L14.0772 13.05L14.8272 16.26L11.9997 14.55Z" fill="white"/>
</g>
</g>
<defs>
<clipPath id="clip0_2543_70979">
<rect width="24" height="24" fill="white"/>
</clipPath>
<clipPath id="clip1_2543_70979">
<rect width="18" height="18" fill="white" transform="translate(3 3)"/>
</clipPath>
</defs>
</svg>
