<svg width="24" height="24" fill="none" xmlns="http://www.w3.org/2000/svg"><g clip-path="url(#a)"><path fill-rule="evenodd" clip-rule="evenodd" d="M2.623 1.002H21.37V1A1.609 1.609 0 0 1 23 2.586v18.826A1.61 1.61 0 0 1 21.37 23H2.623A1.607 1.607 0 0 1 1 21.412V2.587a1.606 1.606 0 0 1 1.623-1.585zm3.273 6.81a1.892 1.892 0 1 1 0-3.783 1.892 1.892 0 0 1 0 3.784zm1.63 11.934H4.263V9.248h3.263v10.498zm12.218-.001h-3.26V14.64c0-1.217-.02-2.784-1.695-2.784-1.697 0-1.957 1.326-1.957 2.695v5.194h-3.26V9.247h3.13v1.434h.043a3.43 3.43 0 0 1 3.088-1.695c3.304 0 3.913 2.173 3.913 5l-.002 5.759z" fill="#000"/></g><defs><clipPath id="a"><path fill="#fff" transform="translate(1 1)" d="M0 0h22v22H0z"/></clipPath></defs></svg>