<?xml version="1.0" encoding="UTF-8" standalone="no"?>
<!-- Created with Inkscape (http://www.inkscape.org/) -->

<svg
   version="1.1"
   id="svg2"
   xml:space="preserve"
   width="1122.52"
   height="361.56"
   viewBox="0 0 1122.52 361.56"
   sodipodi:docname="globoplay_CMYK_logos-02.eps"
   xmlns:inkscape="http://www.inkscape.org/namespaces/inkscape"
   xmlns:sodipodi="http://sodipodi.sourceforge.net/DTD/sodipodi-0.dtd"
   xmlns="http://www.w3.org/2000/svg"
   xmlns:svg="http://www.w3.org/2000/svg"><defs
     id="defs6" /><sodipodi:namedview
     id="namedview4"
     pagecolor="#ffffff"
     bordercolor="#666666"
     borderopacity="1.0"
     inkscape:pageshadow="2"
     inkscape:pageopacity="0.0"
     inkscape:pagecheckerboard="0" /><g
     id="g8"
     inkscape:groupmode="layer"
     inkscape:label="ink_ext_XXXXXX"
     transform="matrix(1.3333333,0,0,-1.3333333,0,361.56)"><g
       id="g10"
       transform="scale(0.1)"><path
         d="M 1665.64,2015.66 V 961.578 c 0,-56.316 35.19,-79.187 86.22,-56.316 l 66.88,29.918 c 42.23,19.359 61.58,47.511 61.58,93.26 v 920.36 c 0,45.75 -19.35,73.9 -61.58,93.26 l -66.88,29.92 c -13.22,5.92 -25.37,8.78 -36.13,8.78 -30.77,0 -50.09,-23.36 -50.09,-65.1 m 4057.97,49.27 c -26.39,0 -42.23,-15.83 -42.23,-42.23 V 954.539 c 0,-26.398 15.84,-42.238 42.23,-42.238 h 131.98 c 26.39,0 42.24,15.84 42.24,42.238 V 2022.7 c 0,26.4 -15.85,42.23 -42.24,42.23 z m -2769.84,0 c -26.4,0 -42.24,-15.83 -42.24,-42.23 V 954.539 c 0,-26.398 15.84,-42.238 42.24,-42.238 h 117.91 c 26.39,0 42.23,15.84 42.23,42.238 v 45.751 c 51.03,-58.071 146.06,-102.06 239.32,-102.06 205.9,0 383.63,186.53 383.63,422.33 0,239.32 -179.5,422.35 -388.91,422.35 -84.46,0 -167.17,-36.97 -221.72,-93.27 v 373.06 c 0,26.4 -15.84,42.23 -42.24,42.23 z m 168.94,-744.37 c 0,128.47 91.5,216.46 200.61,216.46 109.1,0 200.61,-87.99 200.61,-216.46 0,-130.22 -91.51,-216.44 -200.61,-216.44 -109.11,0 -200.61,86.22 -200.61,216.44 m 2873.66,0 c 0,-239.32 179.49,-422.33 388.9,-422.33 98.55,0 181.26,42.231 234.05,103.82 v -47.511 c 0,-26.398 15.84,-42.238 42.23,-42.238 h 117.9 c 26.4,0 42.24,15.84 42.24,42.238 V 1686.6 c 0,26.38 -15.84,42.22 -42.24,42.22 h -117.9 c -26.39,0 -42.23,-15.84 -42.23,-42.22 v -51.05 c -49.27,59.84 -139.02,107.36 -232.29,107.36 -214.69,0 -390.66,-183.03 -390.66,-422.35 m 212.93,0 c 0,130.22 91.51,216.46 200.61,216.46 109.1,0 200.62,-86.24 200.62,-216.46 0,-128.45 -91.52,-216.44 -200.62,-216.44 -109.1,0 -200.61,87.99 -200.61,216.44 m -1249.43,318.51 v 47.53 c 0,26.38 -15.83,42.22 -42.22,42.22 h -117.91 c -26.4,0 -42.23,-15.84 -42.23,-42.22 V 616.672 c 0,-26.402 15.83,-42.242 42.23,-42.242 h 130.22 c 26.4,0 42.24,15.84 42.24,42.242 v 374.816 c 51.03,-52.777 133.74,-93.258 219.97,-93.258 214.69,0 390.65,183.01 390.65,422.33 0,239.32 -179.48,422.35 -388.89,422.35 -98.55,0 -181.26,-42.24 -234.06,-103.84 m 8.81,-318.51 c 0,128.47 91.51,216.46 200.61,216.46 109.11,0 200.61,-87.99 200.61,-216.46 0,-130.22 -91.5,-216.44 -200.61,-216.44 -109.1,0 -200.61,86.22 -200.61,216.44 m -1143.84,0 c 0,-244.6 186.54,-422.33 417.06,-422.33 227.01,0 417.06,177.73 417.06,422.33 0,244.61 -186.53,422.35 -417.06,422.35 -227,0 -417.06,-177.74 -417.06,-422.35 m 212.93,0 c 0,124.94 91.51,216.46 204.13,216.46 112.62,0 204.14,-91.52 204.14,-216.46 0,-124.94 -91.52,-216.44 -204.14,-216.44 -112.62,0 -204.13,91.5 -204.13,216.44 m -2058.9,0 c 0,-244.6 186.53,-422.33 417.06,-422.33 227,0 417.06,177.73 417.06,422.33 0,244.61 -186.53,422.35 -417.06,422.35 -227,0 -417.06,-177.74 -417.06,-422.35 m 212.93,0 c 0,124.94 91.51,216.46 204.13,216.46 112.63,0 204.13,-91.52 204.13,-216.46 0,-124.94 -91.5,-216.44 -204.13,-216.44 -112.62,0 -204.13,91.5 -204.13,216.44 m -1462.351,0 c 0,-239.32 174.219,-404.74 394.181,-404.74 98.55,0 174.22,45.758 218.22,93.27 -1.77,-167.18 -89.76,-242.84 -241.09,-242.84 -80.95,0 -156.615,24.629 -244.608,80.941 -22.875,15.829 -49.277,10.559 -61.586,-14.082 L 741.77,729.289 c -12.321,-24.641 -8.797,-47.519 15.835,-63.348 109.106,-70.39 237.567,-105.582 348.435,-105.582 290.36,0 450.49,156.61 450.49,517.361 v 608.88 c 0,26.38 -15.83,42.22 -42.23,42.22 h -119.67 c -26.39,0 -42.23,-15.84 -42.23,-42.22 v -45.76 c -47.51,58.06 -135.5,102.07 -223.48,102.07 -214.697,0 -399.471,-183.03 -399.471,-422.35 m 209.414,1.76 c 0,130.23 93.267,216.45 204.127,216.45 110.87,0 202.38,-86.22 202.38,-216.45 0,-128.46 -91.51,-216.44 -202.38,-216.44 -110.86,0 -204.127,87.98 -204.127,216.44 m 6602.567,406.5 c -26.4,0 -42.24,-10.55 -49.27,-33.43 l -165.42,-480.41 -190.05,480.41 c -8.8,22.88 -22.88,33.43 -47.52,33.43 h -160.13 c -31.68,0 -44,-19.36 -29.92,-49.26 l 327.31,-739.099 -26.4,-56.313 c -40.47,-87.988 -80.95,-121.429 -121.42,-121.429 -22.88,0 -47.51,7.043 -70.39,17.609 -24.64,12.301 -45.75,8.793 -58.06,-15.84 L 6904.4,676.5 c -10.56,-21.121 -8.8,-42.238 12.32,-58.078 42.24,-33.422 93.26,-58.063 163.65,-58.063 156.62,0 248.13,116.141 332.6,330.832 l 311.46,788.369 c 12.33,29.9 1.77,49.26 -29.91,49.26 h -153.09"
         style="fill:#ee2033;fill-opacity:1;fill-rule:nonzero;stroke:none"
         id="path12" /></g></g></svg>
