<svg xmlns="http://www.w3.org/2000/svg" width="24" height="24" fill="none" xmlns:v="https://vecta.io/nano"><path d="M12 1C5.925 1 1 5.925 1 12c0 4.66 2.899 8.641 6.991 10.243-.096-.87-.183-2.206.039-3.155l1.29-5.468s-.329-.659-.329-1.633c0-1.53.886-2.671 1.99-2.671.939 0 1.391.705 1.391 1.549 0 .944-.601 2.355-.911 3.662-.259 1.095.549 1.988 1.629 1.988 1.955 0 3.458-2.062 3.458-5.037 0-2.634-1.892-4.475-4.594-4.475-3.13 0-4.967 2.348-4.967 4.774 0 .945.364 1.959.819 2.511.09.109.103.204.076.315l-.305 1.248c-.048.202-.16.244-.368.147-1.374-.64-2.233-2.648-2.233-4.262 0-3.47 2.521-6.657 7.268-6.657 3.816 0 6.782 2.719 6.782 6.353 0 3.791-2.391 6.842-5.708 6.842-1.115 0-2.162-.579-2.521-1.263l-.686 2.615c-.248.955-.919 2.153-1.368 2.884C9.773 22.828 10.866 23 12 23c6.075 0 11-4.925 11-11S18.075 1 12 1z" fill="#2f3134"/></svg>