<svg width="24" height="20" fill="none" xmlns="http://www.w3.org/2000/svg"><path d="M24 2.368a9.658 9.658 0 0 1-2.828.795A5.043 5.043 0 0 0 23.337.369a9.715 9.715 0 0 1-3.127 1.225A4.862 4.862 0 0 0 16.616 0c-2.72 0-4.924 2.26-4.924 5.049 0 .396.044.781.128 1.15C7.727 5.99 4.1 3.98 1.67.925a5.124 5.124 0 0 0-.666 2.538c0 1.752.87 3.298 2.19 4.203a4.812 4.812 0 0 1-2.23-.632v.064c0 2.446 1.697 4.487 3.95 4.95a4.812 4.812 0 0 1-2.224.087c.627 2.006 2.445 3.466 4.6 3.507A9.726 9.726 0 0 1 0 17.73 13.688 13.688 0 0 0 7.548 20c9.057 0 14.01-7.694 14.01-14.366 0-.219-.005-.436-.015-.653.964-.714 1.796-1.6 2.457-2.613z" fill="#000"/></svg>