<svg width="23" height="22" fill="none" xmlns="http://www.w3.org/2000/svg"><path fill-rule="evenodd" clip-rule="evenodd" d="M16.64 13.184c-.274-.137-1.62-.795-1.87-.887-.251-.09-.433-.136-.617.138-.182.27-.706.885-.866 1.067-.16.182-.32.204-.593.068-.273-.137-1.156-.424-2.201-1.352-.813-.722-1.363-1.614-1.523-1.887-.159-.272-.017-.42.12-.556.124-.122.274-.318.41-.476.138-.16.183-.273.274-.456.093-.181.047-.34-.023-.477-.068-.136-.615-1.477-.843-2.023-.222-.53-.448-.458-.616-.467-.16-.007-.342-.01-.525-.01-.182 0-.479.069-.73.342-.25.272-.957.931-.957 2.272 0 1.34.98 2.636 1.117 2.818.138.181 1.93 2.933 4.676 4.113.654.28 1.163.448 1.56.573.656.208 1.253.179 1.724.108.525-.078 1.62-.659 1.848-1.295.227-.636.227-1.182.16-1.295-.069-.114-.251-.182-.526-.319h.001zm-4.994 6.786h-.004a9.124 9.124 0 0 1-4.634-1.264l-.332-.196-3.447.9.92-3.344-.216-.342a9.008 9.008 0 0 1-1.392-4.822c.002-4.996 4.086-9.06 9.109-9.06 2.431 0 4.717.944 6.436 2.656a8.97 8.97 0 0 1 2.664 6.41c-.002 4.996-4.086 9.062-9.104 9.062zm7.748-16.773A10.885 10.885 0 0 0 15.842.826 10.928 10.928 0 0 0 11.645 0C5.608 0 .694 4.89.692 10.901a10.835 10.835 0 0 0 1.461 5.45L.6 22l5.806-1.516a10.985 10.985 0 0 0 5.236 1.327h.004c6.037 0 10.952-4.89 10.954-10.902a10.792 10.792 0 0 0-.827-4.175 10.832 10.832 0 0 0-2.379-3.537z" fill="#000"/></svg>